{"title":"Led Zeppelin-The Song Remains the Same(dvdripmp4)","uid":7694307,"size":2158739663,"categoryP":"video","categoryS":"movies","magnet":"?xt=urn:btih:eab68d267e4d9c752257dde6d69f702b616f2e7b&amp;dn=Led+Zeppelin-The+Song+Remains+the+Same%28dvdripmp4%29&amp;tr=udp%3A%2F%2Ftracker.openbittorrent.com%3A80&amp;tr=udp%3A%2F%2Fopen.demonii.com%3A1337&amp;tr=udp%3A%2F%2Ftracker.coppersurfer.tk%3A6969&amp;tr=udp%3A%2F%2Fexodus.desync.com%3A6969","seeders":2,"leechers":0,"uploader":"russell887","files":5,"time":1349311513,"description":"For Led Zeppelin fanatics, this 1976 feature The Song Remains the Same is a treasure of searing live performances, particularly welcome in light of the sad scarcity of such visual material from the band's great decade. Despite the group's road weariness after a long tour, their final, three-night stand at Madison Square Garden in 1973 was full of the old power. Performances of &quot;No Quarter,&quot; &quot;Whole Lotta Love,&quot; &quot;Black Dog,&quot; &quot;Dazed and Confused,&quot; and &quot;Stairway to Heaven&quot; underscore Zep's charisma. Trouble is, you don't get an unbroken performance here. Viewers have to wade through a mishmash of documentary insight into the lives of Robert Plant, Jimmy Page, John Bonham, and John Paul Jones, as well as fantasy sequences supposedly inspired by the thoughts and fantasies of the band's individual members. \nExperience the lightning of Led Zeppelin's 1973 Madison Square Garden concert-and enter the dreams and backstage lives of one of rock's all-time best-selling bands! Year: 1976 Director: Peter Clifton, Joe Massot Starring: Jimmy Page, Robert Plant, John Bonham, John Paul Jones. \n\nTracklist: \n01.Mob Rubout\n02. Big Apple Credits\n03. Country Life (Autumn Lake)\n04. New York (Bron-Yr-Aur)\n05. Rock And Roll\n06. Black Dog\n07. Since I've Been Loving You\n08. No Quarter\n09. Who's Responsible?\n10. The Song Remains The Same\n11. The Rain Song Begins\n12. Fire And Sword\n13. Capturing The Castle\n14. Not-Quit-Backstage Pass\n15. Dazed And Confused Begins\n16. Strung Out\n17. Magic In The Night\n18. Dazed And Confused Continues\n19. Gate Crasher\n20. Dazed And Confused Concludes\n21. No Comment\n22. Stairway To Heaven\n23. Moby Dick; Country Squitre Bonham\n24. Heartbreaker; Grand Theft\n25. Whole Lotta Love\n26. End Credits And Exit Music\n\nJimmy Page: electric guitar, backing vocals\nRobert Plant: lead vocals\nJohn Bonham: drums, percussion\nJohn Paul Jones: bass guitar, electric piano, mellotron \n\nINFO: \nFormat : MPEG-4\nFormat profile : Base Media\nCodec ID : isom\nFile size : 1.78 GiB\nDuration : 2h 17mn\nOverall bit rate mode : Variable\nOverall bit rate : 1 847 Kbps\nWriting application : Lavf52.104.0\n\nVideo\nID : 1\nFormat : MPEG-4 Visual\nFormat profile : Simple@L3\nFormat settings, BVOP : No\nFormat settings, QPel : No\nFormat settings, GMC : No warppoints\nFormat settings, Matrix : Default (H.263)\nCodec ID : 20\nDuration : 2h 17mn\nBit rate : 1 714 Kbps\nWidth : 720 pixels\nHeight : 480 pixels\nDisplay aspect ratio : 16:9\nOriginal display aspect ratio : 16:9\nFrame rate mode : Constant\nFrame rate : 29.970 fps\nStandard : NTSC\nColor space : YUV\nChroma subsampling : 4:2:0\nBit depth : 8 bits\nScan type : Progressive\nCompression mode : Lossy\nBits/(Pixel*Frame) : 0.166\nStream size : 1.65 GiB (93%)\nWriting library : XviD 1.2.1 (UTC 2008-12-04)\n\nAudio\nID : 2\nFormat : AAC\nFormat/Info : Advanced Audio Codec\nFormat profile : LC\nCodec ID : 40\nDuration : 2h 17mn\nBit rate mode : Variable\nBit rate : 128 Kbps\nChannel(s) : 2 channels\nChannel positions : Front: L R\nSampling rate : 44.1 KHz\nCompression mode : Lossy\nStream size : 126 MiB (7%)\n\nSIZE: 2.01GB","torrent":{"xt":"urn:btih:eab68d267e4d9c752257dde6d69f702b616f2e7b","amp;dn":"Led+Zeppelin-The+Song+Remains+the+Same%28dvdripmp4%29","amp;tr":["udp%3A%2F%2Ftracker.openbittorrent.com%3A80","udp%3A%2F%2Fopen.demonii.com%3A1337","udp%3A%2F%2Ftracker.coppersurfer.tk%3A6969","udp%3A%2F%2Fexodus.desync.com%3A6969"],"infoHash":"eab68d267e4d9c752257dde6d69f702b616f2e7b","infoHashBuffer":{"type":"Buffer","data":[234,182,141,38,126,77,156,117,34,87,221,230,214,159,112,43,97,111,46,123]},"announce":[],"urlList":[]}}